<svg width="136" height="147" viewBox="0 0 136 147" fill="none" xmlns="http://www.w3.org/2000/svg">
<path d="M65.6011 140.684C55.1568 137.642 45.3637 132.274 36.8036 124.899C28.2435 117.523 21.0912 108.291 15.7717 97.75C10.4521 87.2094 7.07388 75.5756 5.83771 63.54C4.63117 51.7927 5.4893 39.8967 8.36065 28.5255C8.46109 28.1277 8.51131 27.9288 8.662 27.8161C8.81269 27.7034 9.02156 27.7117 9.43929 27.7281C29.7067 28.525 49.4955 20.7026 64.8473 5.82931C65.2065 5.48131 65.3861 5.30731 65.6011 5.30731C65.816 5.30731 65.9956 5.48131 66.3548 5.82931C81.7066 20.7025 101.495 28.525 121.763 27.7281C122.18 27.7117 122.389 27.7034 122.54 27.8161C122.691 27.9289 122.741 28.1278 122.841 28.5256C125.861 40.4891 126.652 53.0262 125.162 65.354" stroke="url(#paint0_linear_4241_12925)" stroke-opacity="0.8" stroke-width="10.6154" stroke-linecap="round" stroke-linejoin="round"/>
<path d="M105.136 142.223C105.503 142.628 105.686 142.831 105.921 142.831C106.156 142.831 106.34 142.628 106.708 142.224L128.396 118.351C129.774 116.85 130.87 115.053 131.62 113.068C132.37 111.082 132.758 108.949 132.761 106.792C132.764 104.636 132.382 102.501 131.638 100.513C130.894 98.5245 129.803 96.724 128.429 95.2173C125.626 92.1388 121.863 90.4113 117.942 90.4029C114.02 90.3944 110.251 92.1057 107.437 95.1721L106.723 95.9602C106.355 96.3662 106.17 96.5693 105.935 96.569C105.699 96.5687 105.516 96.3653 105.148 95.9584L104.439 95.1721C101.635 92.0959 97.8736 90.3698 93.9541 90.3614C90.0345 90.3529 86.2668 92.0628 83.4532 95.1269C82.0746 96.6281 80.9777 98.4242 80.2275 100.409C79.4772 102.394 79.0887 104.528 79.085 106.684C79.0812 108.841 79.4623 110.976 80.2056 112.964C80.949 114.953 82.0395 116.754 83.413 118.261L105.136 142.223Z" stroke="url(#paint1_linear_4241_12925)" stroke-opacity="0.8" stroke-width="6.36923" stroke-linecap="round" stroke-linejoin="round"/>
<defs>
<linearGradient id="paint0_linear_4241_12925" x1="5.39512" y1="36.7285" x2="119.723" y2="90.2491" gradientUnits="userSpaceOnUse">
<stop offset="0.000100017" stop-color="#008FF7"/>
<stop offset="0.25" stop-color="#008FF7"/>
<stop offset="0.45" stop-color="#2D84F8"/>
<stop offset="0.55" stop-color="#5A79F9"/>
<stop offset="0.72" stop-color="#866EF9"/>
<stop offset="0.8" stop-color="#B363FA"/>
<stop offset="0.85" stop-color="#E44BC1"/>
<stop offset="0.95" stop-color="#EC4884"/>
<stop offset="1" stop-color="#F34546"/>
</linearGradient>
<linearGradient id="paint1_linear_4241_12925" x1="116.073" y1="89.7718" x2="93.3292" y2="132.533" gradientUnits="userSpaceOnUse">
<stop stop-color="#F34546"/>
<stop offset="0.5" stop-color="#E44BC1"/>
<stop offset="1" stop-color="#B363FA"/>
</linearGradient>
</defs>
</svg>
