<svg width="100" height="96" viewBox="0 0 100 96" fill="none" xmlns="http://www.w3.org/2000/svg">
<path d="M2.84243 21.6568C2.29351 22.8918 2.01905 23.5093 2.08586 24.087C2.12717 24.4442 2.2583 24.7852 2.467 25.078C2.80454 25.5516 3.42205 25.826 4.65708 26.3749L41.0207 42.5359C42.2559 43.0848 42.8734 43.3593 43.4512 43.2924C43.8083 43.2511 44.1491 43.12 44.4419 42.9114C44.9155 42.5738 45.19 41.9563 45.7389 40.7212C46.2879 39.486 46.5624 38.8684 46.4955 38.2907C46.4542 37.9335 46.3231 37.5927 46.1144 37.2999C45.7769 36.8263 45.1593 36.5518 43.9241 36.0029L7.56036 19.8422C6.32541 19.2934 5.70793 19.0189 5.13025 19.0858C4.77305 19.1271 4.43215 19.2582 4.13933 19.4669C3.66576 19.8044 3.39132 20.4219 2.84243 21.6568ZM45.739 93.1478C47.0909 93.1478 47.7668 93.1478 48.2677 92.8519C48.5771 92.6692 48.8352 92.4111 49.0179 92.1017C49.3138 91.6008 49.3138 90.9248 49.3138 89.5729V44.296C49.3138 42.9441 49.3138 42.2681 49.0179 41.7672C48.8352 41.4578 48.5771 41.1997 48.2677 41.017C47.7668 40.7211 47.0909 40.7211 45.739 40.7211C44.3871 40.7211 43.7111 40.7211 43.2102 41.017C42.9008 41.1997 42.6427 41.4578 42.46 41.7672C42.1641 42.2681 42.1641 42.9441 42.1641 44.296V89.5729C42.1641 90.9248 42.1641 91.6008 42.46 92.1017C42.6427 92.4111 42.9008 92.6692 43.2102 92.8519C43.7111 93.1478 44.3871 93.1478 45.739 93.1478ZM45.739 40.7212C46.2879 41.9563 46.5624 42.5738 47.036 42.9114C47.3288 43.12 47.6696 43.2511 48.0267 43.2924C48.6045 43.3593 49.2221 43.0848 50.4572 42.5359L86.8208 26.3749C88.0559 25.826 88.6734 25.5516 89.0109 25.078C89.2196 24.7852 89.3507 24.4442 89.392 24.087C89.4589 23.5093 89.1844 22.8918 88.6355 21.6568C88.0866 20.4219 87.8121 19.8044 87.3386 19.4669C87.0458 19.2582 86.7048 19.1271 86.3477 19.0858C85.77 19.0189 85.1525 19.2934 83.9175 19.8422L47.5538 36.0029C46.3186 36.5518 45.701 36.8263 45.3635 37.2999C45.1548 37.5927 45.0237 37.9335 44.9824 38.2907C44.9156 38.8684 45.19 39.486 45.739 40.7212Z" fill="#F35A7B"/>
<path d="M88.6291 54.6713V23.4908C88.6291 22.3605 87.9635 21.3364 86.9307 20.8775L46.8943 3.08421C46.1543 2.75578 45.3107 2.75578 44.5708 3.08421L4.53433 20.8775C3.5015 21.3364 2.83594 22.3605 2.83594 23.4908V72.2007C2.83594 73.3306 3.5015 74.3551 4.53433 74.8141L44.5708 92.6069C45.3107 92.9353 46.1543 92.9353 46.8943 92.6069L66.9125 83.7105" stroke="#F35A7B" stroke-width="5.67669" stroke-linecap="round" stroke-linejoin="round"/>
<path d="M24.2891 12.1357L65.4872 30.445C66.5201 30.9039 67.1856 31.9281 67.1856 33.0583V50.2641" stroke="#F35A7B" stroke-width="5.67669" stroke-linecap="round" stroke-linejoin="round"/>
<path d="M92.7606 73.1051C92.7446 75.2487 91.9867 77.3207 90.6161 78.9689C89.2453 80.617 87.3462 81.7397 85.2413 82.1463C83.1364 82.5526 80.9558 82.2179 79.07 81.1986C77.1841 80.1791 75.7093 78.5384 74.8963 76.5548C74.0833 74.5712 73.9822 72.3674 74.6101 70.3177C75.2381 68.268 76.5564 66.499 78.341 65.3112C80.1256 64.1235 82.2664 63.5903 84.3995 63.8023C86.5327 64.0143 88.5268 64.9584 90.0427 66.4741C90.9096 67.3463 91.5958 68.381 92.0622 69.5189C92.5286 70.6568 92.766 71.8754 92.7606 73.1051Z" stroke="#FF2D55" stroke-width="2.13746" stroke-miterlimit="10" stroke-linecap="square"/>
<path d="M98.1088 73.1081C98.1088 74.3677 96.5693 75.4033 96.2614 76.5509C95.9536 77.6986 96.7512 79.42 96.1494 80.4556C95.5477 81.4912 93.6722 81.6453 92.8186 82.5129C91.9649 83.3806 91.8249 85.228 90.7613 85.8299C89.6976 86.4316 88.0462 85.6339 86.8566 85.9557C85.6671 86.2777 84.6594 87.8031 83.4138 87.8031C82.1682 87.8031 81.1326 86.2636 79.9709 85.9557C78.8093 85.6479 77.1719 86.4456 76.0663 85.8299C74.9606 85.214 74.8767 83.3666 74.009 82.5129C73.1413 81.6593 71.2939 81.5052 70.6781 80.4556C70.0623 79.406 70.888 77.7545 70.5661 76.5509C70.2442 75.3474 68.7188 74.3677 68.7188 73.1081C68.7188 71.8485 70.2582 70.8129 70.5661 69.6653C70.874 68.5177 70.0763 66.8662 70.6781 65.7606C71.2799 64.655 73.1413 64.571 74.009 63.7033C74.8767 62.8356 75.0166 60.9882 76.0663 60.3724C77.1159 59.7566 78.7674 60.5824 79.9709 60.2605C81.1745 59.9386 82.1541 58.4131 83.4138 58.4131C84.6734 58.4131 85.709 59.9526 86.8566 60.2605C88.0042 60.5684 89.6557 59.7706 90.7613 60.3724C91.8669 60.9742 91.9509 62.8356 92.8186 63.7033C93.6863 64.571 95.5337 64.711 96.1494 65.7606C96.7653 66.8102 95.9395 68.4617 96.2614 69.6653C96.5833 70.8689 98.1088 71.8485 98.1088 73.1081Z" stroke="#FF2D55" stroke-width="2.13746" stroke-miterlimit="10" stroke-linecap="square"/>
<path d="M83.4166 67.3857L85.0679 70.8285L88.7627 71.3884L86.0896 74.0755L86.7193 77.8683L83.4166 76.0768L80.1136 77.8683L80.7434 74.0755L78.0703 71.3884L81.7651 70.8285L83.4166 67.3857Z" fill="#FF2D55"/>
</svg>
