<svg width="60" height="60" viewBox="0 0 60 60" fill="none" xmlns="http://www.w3.org/2000/svg">
<g clip-path="url(#clip0_3115_6768)">
<path d="M55.7501 25.5758C54.3229 25.833 52.8755 25.9622 51.4253 25.9616C38.0771 25.9616 27.2564 15.1409 27.2564 1.79294C27.2564 1.42176 27.2649 1.05257 27.2813 0.685547C14.0065 1.90142 3.60938 13.065 3.60938 26.657C3.60938 41.0615 15.2865 52.7384 29.6907 52.7384C44.0952 52.7384 55.7721 41.0615 55.7721 26.657C55.7721 26.2948 55.7648 25.9343 55.7501 25.5758Z" fill="#FF9FC2"/>
<path d="M55.7501 31.5396C54.3229 31.7969 52.8755 31.926 51.4253 31.9255C38.0771 31.9255 27.2564 21.1047 27.2564 7.75681C27.2564 7.38563 27.2649 7.01643 27.2813 6.64941C14.0065 7.86529 3.60938 19.0289 3.60938 32.6209C3.60938 47.0253 15.2865 58.7023 29.6907 58.7023C44.0952 58.7023 55.7721 47.0253 55.7721 32.6209C55.7721 32.2586 55.7648 31.8981 55.7501 31.5396Z" stroke="#FF2D55" stroke-width="0.593883" stroke-linecap="round" stroke-linejoin="round"/>
</g>
<defs>
<clipPath id="clip0_3115_6768">
<rect width="59.3883" height="59.3883" fill="white"/>
</clipPath>
</defs>
</svg>
