<svg xmlns="http://www.w3.org/2000/svg" width="54" height="55" viewBox="0 0 54 55" fill="none">
  <foreignObject x="-8.62088" y="-8.62088" width="70.8824" height="71.4546"><div xmlns="http://www.w3.org/1999/xhtml" style="backdrop-filter:blur(4.31px);clip-path:url(#bgblur_0_3115_6797_clip_path);height:100%;width:100%"></div></foreignObject><path data-figma-bg-blur-radius="8.62088" d="M0 26.8205C0 12.008 12.008 0 26.8205 0C41.6331 0 53.641 12.0079 53.641 26.8205V27.3919C53.641 42.2045 41.6331 54.2124 26.8205 54.2124C12.008 54.2124 0 42.2045 0 27.3919V26.8205Z" fill="white" fill-opacity="0.2"/>
  <path d="M26.8203 18.3936V35.819" stroke="white" stroke-width="4.62973" stroke-linecap="round" stroke-linejoin="round"/>
  <path d="M18.2031 27.1064H35.4449" stroke="white" stroke-width="4.62973" stroke-linecap="round" stroke-linejoin="round"/>
  <defs>
    <clipPath id="bgblur_0_3115_6797_clip_path" transform="translate(8.62088 8.62088)"><path d="M0 26.8205C0 12.008 12.008 0 26.8205 0C41.6331 0 53.641 12.0079 53.641 26.8205V27.3919C53.641 42.2045 41.6331 54.2124 26.8205 54.2124C12.008 54.2124 0 42.2045 0 27.3919V26.8205Z"/>
  </clipPath></defs>
</svg>
