<svg width="1849" height="542" viewBox="0 0 1849 542" fill="none" xmlns="http://www.w3.org/2000/svg">
<path d="M105.188 508.274C165.349 525.051 232.05 524.545 291.735 506.657C362.716 485.433 421.094 441.773 473.765 396.091C526.436 350.41 576.134 301.292 637.841 264.808C699.667 228.323 777.069 205.179 850.427 219.328C896.44 228.222 937.816 251.063 984.304 258.036C1131.38 280.069 1264.07 139.992 1410.19 166.269C1472.61 177.487 1522.78 217.812 1583.9 233.68C1663.79 254.499 1757.72 226.807 1805.4 168.391" stroke="#62A8B2" stroke-width="2" stroke-miterlimit="10"/>
<path d="M100.203 498.976C151.209 510.8 207.328 512.215 259.999 503.22C270.343 501.502 280.568 499.279 290.556 496.752C331.694 486.241 368.551 469.465 401.961 449.858C427.524 434.9 451.184 418.326 474.25 400.942C487.804 390.735 501.358 380.224 515.269 369.41C547.014 344.447 579.116 317.26 612.645 292.701C622.275 285.627 632.025 278.856 641.893 272.387C666.624 256.217 693.494 242.169 721.554 231.86C761.265 217.307 803.473 210.131 845.562 215.892C890.386 222.057 931.762 242.068 978.607 248.334C985.621 249.243 992.517 249.85 999.413 250.254C1044.12 252.579 1087.16 243.382 1130.08 229.333C1198.56 206.897 1266.33 171.827 1335.53 161.216C1359.31 157.577 1383.21 156.87 1407.58 160.508C1456.09 167.785 1497.59 191.636 1542.41 209.323C1555.61 214.477 1569.16 219.227 1583.19 222.663C1663.92 242.977 1757.61 219.126 1804.81 167.178" stroke="#69A3AE" stroke-width="2" stroke-miterlimit="10"/>
<path d="M95.2031 489.779C147.042 499.481 204.35 500.188 258.091 492.406C268.672 490.89 279.016 489.071 289.241 486.848C331.093 477.853 368.664 463.603 402.193 447.23C427.755 434.597 451.178 420.852 474.719 405.894C488.511 397.102 502.422 387.905 517.046 377.899C550.337 354.958 583.984 327.165 617.275 301.393C626.787 294.015 636.299 286.84 646.048 279.866C670.065 262.685 695.509 247.323 722.023 235.6C759.713 219.126 799.543 209.222 840.562 212.456C884.078 215.791 925.691 233.174 972.774 238.733C979.789 239.541 986.804 240.147 993.819 240.451C1038.88 242.775 1081.92 235.701 1125.2 223.067C1194.28 203.057 1263.24 168.492 1332.79 156.87C1356.57 152.928 1380.71 151.715 1405.08 154.646C1453.71 160.508 1495.92 182.237 1541.45 198.812C1554.89 203.663 1568.56 208.11 1582.71 211.546C1664.15 231.254 1757.73 211.445 1804.57 165.865" stroke="#719DAA" stroke-width="2" stroke-miterlimit="10"/>
<path d="M90.2109 480.582C142.882 488.061 201.379 488.263 256.309 481.694C267.128 480.38 277.71 478.864 288.054 477.045C330.737 469.465 369.022 457.842 402.551 444.603C428.113 434.395 451.417 423.379 475.196 410.746C489.107 403.368 503.612 395.485 518.831 386.288C553.549 365.368 588.979 336.968 621.795 309.984C631.188 302.303 640.58 294.622 649.973 287.345C673.277 269.052 697.294 252.478 722.381 239.339C757.931 220.844 795.502 206.998 835.451 208.919C877.54 210.94 919.391 224.179 966.831 229.031C973.846 229.738 980.979 230.243 987.994 230.648C1033.41 232.972 1076.45 228.02 1119.97 216.903C1189.64 199.317 1259.67 165.359 1329.82 152.726C1353.72 148.482 1377.85 146.763 1402.35 148.987C1451.21 153.434 1494.02 173.04 1540.15 188.503C1553.7 193.051 1567.61 197.296 1581.88 200.631C1664.16 219.834 1757.49 203.865 1803.98 164.753" stroke="#7898A6" stroke-width="2" stroke-miterlimit="10"/>
<path d="M85.2188 471.284C138.603 476.54 198.408 476.236 254.408 470.779C265.346 469.768 276.166 468.454 286.747 467.039C330.263 460.975 369.142 451.981 402.79 441.773C428.352 433.991 451.537 425.603 475.554 415.496C489.703 409.533 504.565 402.964 520.497 394.576C556.76 375.575 593.737 346.671 626.314 318.575C635.707 310.489 644.743 302.505 653.898 294.723C676.488 275.42 699.198 257.531 722.739 242.978C756.149 222.563 791.342 207.403 830.459 205.382C871.24 203.259 913.329 215.084 961.007 219.328C968.14 219.935 975.274 220.44 982.289 220.743C1028.06 223.068 1071.1 220.238 1114.98 210.536C1185.24 195.275 1256.34 161.923 1326.97 148.28C1350.99 143.732 1375.12 141.508 1399.61 143.024C1448.72 146.157 1492.11 163.54 1538.84 177.993C1552.63 182.238 1566.66 186.28 1581.05 189.514C1664.16 208.211 1757.37 196.185 1803.27 163.439" stroke="#8092A2" stroke-width="2" stroke-miterlimit="10"/>
<path d="M80.2266 462.087C134.443 465.119 195.556 464.209 252.507 460.065C263.683 459.257 274.74 458.246 285.56 457.235C329.908 452.687 369.5 446.219 403.148 439.145C428.711 433.788 451.658 428.129 476.15 420.448C490.537 415.9 505.755 410.543 522.401 403.064C560.091 386.085 598.732 356.676 631.072 327.266C640.345 318.877 649.263 310.489 658.061 302.302C679.819 281.988 701.22 262.786 723.216 246.818C754.486 224.381 787.301 206.695 825.467 201.945C864.94 197.093 907.148 206.189 955.182 209.727C962.316 210.232 969.568 210.636 976.702 211.04C1022.83 213.365 1065.87 212.556 1110.1 204.471C1180.97 191.434 1253.25 158.79 1324.24 144.236C1348.37 139.385 1372.51 136.656 1397.12 137.465C1446.46 139.183 1490.45 154.444 1537.89 167.785C1551.92 171.726 1566.07 175.567 1580.69 178.7C1664.52 196.891 1757.61 188.705 1803.15 162.428" stroke="#878D9E" stroke-width="2" stroke-miterlimit="10"/>
<path d="M75.2266 452.89C130.157 453.799 192.577 452.283 250.717 449.252C262.131 448.645 273.426 448.039 284.365 447.23C329.426 444.198 369.732 440.257 403.498 436.315C429.18 433.283 452.008 430.453 476.619 425.198C491.244 422.065 506.819 418.022 524.178 411.352C563.413 396.293 603.6 366.378 635.702 335.856C644.857 327.064 653.656 318.372 662.097 309.68C683.142 288.255 703.116 267.738 723.685 250.456C752.934 226.099 783.133 205.785 820.585 198.408C858.632 190.929 901.197 197.195 949.469 200.025C956.721 200.429 963.855 200.833 971.108 201.136C1017.72 203.461 1060.64 204.775 1105.1 198.104C1176.56 187.493 1249.92 155.455 1321.38 139.79C1345.51 134.534 1369.88 131.401 1394.5 131.502C1444.08 131.806 1488.66 144.944 1536.7 157.173C1550.84 160.811 1565.23 164.349 1579.97 167.482C1664.63 185.168 1757.49 180.923 1802.67 160.912" stroke="#8F8799" stroke-width="2" stroke-miterlimit="10"/>
<path d="M70.2344 443.592C125.997 442.278 189.606 440.257 248.816 438.438C260.468 438.034 271.882 437.731 283.058 437.326C328.952 435.81 369.852 434.395 403.738 433.587C429.419 432.981 452.128 432.981 476.977 430.05C491.839 428.332 507.771 425.603 525.844 419.842C566.506 406.805 608.357 376.283 640.222 344.548C649.377 335.453 657.818 326.256 666.022 317.261C686.353 294.824 704.901 272.994 723.924 254.297C750.914 227.919 778.854 205.078 815.355 195.073C851.975 184.966 894.778 188.302 943.406 190.525C950.659 190.828 957.912 191.131 965.283 191.536C1012.25 193.961 1055.17 197.296 1099.99 192.142C1172.04 183.855 1246.59 152.423 1318.4 135.849C1342.66 130.29 1367.03 126.652 1391.76 126.045C1441.58 124.934 1486.76 135.95 1535.39 147.067C1549.78 150.402 1564.28 153.737 1579.14 156.769C1664.63 173.95 1757.25 173.546 1801.95 160.003" stroke="#968295" stroke-width="2" stroke-miterlimit="10"/>
<path d="M65.2422 434.395C121.837 430.858 186.635 428.23 246.915 427.623C258.805 427.522 270.457 427.421 281.752 427.421C328.478 427.421 370.092 428.533 403.858 430.858C429.54 432.576 452.13 435.405 477.336 434.799C492.435 434.496 508.724 432.98 527.51 428.129C569.718 417.012 613.115 385.985 644.741 353.037C653.777 343.537 662.1 334.037 669.947 324.537C689.565 300.989 706.686 277.946 724.283 257.834C749.132 229.434 774.576 204.168 810.363 191.333C845.438 178.7 888.716 179.104 937.701 180.62C944.953 180.822 952.325 181.125 959.697 181.53C1007.02 183.955 1049.94 189.413 1095 185.673C1167.65 179.811 1243.26 148.987 1315.55 131.3C1339.93 125.438 1364.3 121.295 1389.15 119.981C1439.09 117.454 1484.86 126.247 1534.32 136.454C1548.83 139.486 1563.57 142.619 1578.55 145.449C1664.75 162.024 1757.25 165.662 1801.6 158.487" stroke="#9E7D91" stroke-width="2" stroke-miterlimit="10"/>
<path d="M60.25 425.198C117.558 419.438 183.664 416.305 245.133 416.911C257.142 417.012 269.031 417.315 280.683 417.618C328.241 419.033 370.45 422.773 404.335 428.23C430.016 432.374 452.488 437.933 477.932 439.752C493.269 440.863 509.915 440.661 529.413 436.619C573.048 427.523 618.229 395.99 649.38 361.83C658.297 352.027 666.501 342.123 673.991 332.218C692.777 307.659 708.59 283.303 724.76 261.776C747.588 231.456 770.535 203.764 805.371 188.099C839.019 172.939 882.535 170.413 931.876 171.12C939.248 171.221 946.619 171.423 954.11 171.828C1001.79 174.253 1044.71 181.732 1090.13 179.61C1163.37 176.072 1240.05 145.854 1312.82 127.258C1337.19 121.093 1361.8 116.444 1386.53 114.423C1436.71 110.481 1483.08 117.151 1533.13 126.247C1547.88 128.875 1562.74 131.907 1577.96 134.636C1664.99 150.705 1757.25 158.184 1801.24 157.476" stroke="#A5778D" stroke-width="2" stroke-miterlimit="10"/>
<path d="M55.2578 415.9C113.398 407.916 180.693 404.277 243.232 405.996C255.479 406.299 267.606 406.905 279.377 407.613C327.767 410.543 370.57 416.809 404.574 425.4C430.256 431.969 452.608 440.358 478.29 444.501C493.984 447.028 510.867 448.14 531.08 444.906C576.141 437.73 622.986 405.692 653.899 370.319C662.816 360.213 670.663 349.904 677.916 339.596C695.988 314.026 710.375 288.356 724.999 265.414C745.687 233.073 766.137 202.955 800.141 184.461C832.481 166.875 876.234 161.216 925.814 161.317C933.186 161.317 940.676 161.519 948.167 161.923C996.201 164.349 1039.12 173.95 1084.9 173.343C1158.73 172.232 1236.61 142.518 1309.73 122.912C1334.22 116.444 1358.83 111.289 1383.68 108.561C1434.09 103.204 1481.06 107.752 1531.71 115.736C1546.57 118.061 1561.67 120.789 1577.01 123.518C1664.87 139.082 1756.9 150.503 1800.41 156.162" stroke="#AD7289" stroke-width="2" stroke-miterlimit="10"/>
<path d="M50.2656 406.702C109.119 396.596 177.722 392.25 241.331 395.282C253.816 395.888 266.062 396.697 278.07 397.809C327.174 402.256 370.809 411.048 404.813 422.772C430.495 431.666 452.847 442.884 478.767 449.453C494.699 453.395 512.058 455.719 532.864 453.395C579.472 448.139 627.862 415.596 658.537 379.011C667.336 368.5 675.064 357.787 682.079 347.074C699.438 320.393 712.397 293.509 725.595 269.153C744.143 234.892 762.215 202.45 795.387 181.024C826.3 161.013 870.291 152.321 920.227 151.715C927.718 151.614 935.208 151.715 942.818 152.119C991.327 154.545 1034.13 166.268 1080.14 167.077C1154.57 168.391 1233.52 139.284 1307.12 118.666C1331.73 111.895 1356.34 106.134 1381.31 102.799C1431.96 96.0279 1479.51 98.4535 1530.88 105.427C1545.98 107.448 1561.2 109.975 1576.65 112.603C1665.23 127.661 1757.14 142.922 1800.3 155.05" stroke="#B46C85" stroke-width="2" stroke-miterlimit="10"/>
<path d="M45.2656 397.506C104.951 385.176 174.743 380.325 239.542 384.469C252.264 385.277 264.748 386.389 276.875 387.905C326.811 393.868 371.041 405.187 405.164 420.044C430.845 431.262 453.079 445.411 479.236 454.305C495.406 459.762 513.121 463.3 534.641 461.784C582.675 458.448 632.731 425.4 663.168 387.703C671.847 376.889 679.457 365.772 686.115 354.654C702.641 326.963 714.412 298.765 726.064 272.994C742.59 236.812 758.285 201.945 790.387 177.588C819.992 155.152 864.221 143.428 914.395 142.114C921.886 141.912 929.495 142.013 937.104 142.417C985.971 144.843 1028.77 158.689 1075.14 161.014C1150.28 164.652 1230.18 136.151 1304.26 114.523C1328.87 107.449 1353.6 101.183 1378.68 97.1403C1429.57 88.954 1477.72 89.2572 1529.68 95.119C1545.02 96.8371 1560.36 99.1616 1575.93 101.688C1665.34 116.242 1757.13 135.444 1799.81 153.939" stroke="#BC6781" stroke-width="2" stroke-miterlimit="10"/>
<path d="M40.2734 388.208C100.673 373.655 171.772 368.298 237.641 373.655C250.6 374.666 263.322 376.182 275.687 378.001C326.456 385.48 371.399 399.224 405.522 417.416C431.203 431.06 453.318 448.039 479.713 459.156C496.121 466.029 514.193 470.779 536.426 470.172C585.887 468.858 637.607 435.204 667.806 396.293C676.486 385.075 683.738 373.655 690.159 362.032C705.972 333.229 716.316 303.819 726.422 276.632C740.808 238.43 754.244 201.339 785.394 174.051C813.692 149.29 858.04 134.332 908.571 132.412C916.061 132.109 923.789 132.109 931.399 132.513C980.622 135.04 1023.42 150.907 1070.15 154.646C1145.89 160.71 1226.97 132.715 1301.4 110.178C1326.13 102.699 1350.98 96.0286 1375.95 91.2786C1427.08 81.6774 1475.82 79.8582 1528.38 84.6083C1543.83 86.0232 1559.41 88.1455 1575.22 90.5711C1665.46 104.619 1757.01 127.662 1799.34 152.625" stroke="#C3617D" stroke-width="2" stroke-miterlimit="10"/>
<path d="M35.2812 379.011C96.5127 362.234 168.801 356.271 235.74 362.841C248.937 364.154 261.778 365.873 274.381 368.096C325.982 376.99 371.519 393.362 405.761 414.687C431.443 430.655 453.438 450.565 480.19 464.007C496.717 472.395 515.264 478.358 538.211 478.56C589.218 479.167 642.483 445.108 672.326 404.985C680.886 393.463 688.02 381.639 694.084 369.612C709.184 339.798 718.101 309.074 726.78 280.472C739.027 240.349 750.203 200.934 780.284 170.716C807.392 143.529 851.859 125.539 902.627 122.912C910.237 122.507 917.846 122.507 925.693 122.912C975.273 125.438 1018.08 143.428 1065.04 148.683C1141.37 157.173 1223.53 129.784 1298.43 106.135C1323.28 98.3528 1348.13 91.1772 1373.22 85.7197C1424.58 74.6025 1473.92 70.762 1527.19 74.5015C1542.88 75.6132 1558.7 77.4323 1574.51 79.8579C1665.46 93.2996 1756.9 120.385 1798.75 151.715" stroke="#CB5C79" stroke-width="2" stroke-miterlimit="10"/>
<path d="M30.2891 369.814C92.3528 350.915 165.949 344.346 233.958 352.128C247.274 353.644 260.472 355.665 273.194 358.293C325.508 368.702 371.877 387.501 406.119 412.059C431.92 430.352 453.559 453.193 480.667 468.959C497.431 478.762 516.336 485.938 539.996 487.151C592.429 489.677 647.478 455.113 676.964 413.777C685.406 401.953 692.302 389.623 698.128 377.192C712.514 346.266 720.005 314.329 727.257 284.313C737.482 242.169 746.281 200.429 775.291 167.279C801.092 137.667 845.678 116.646 896.803 113.31C904.412 112.805 912.141 112.704 919.988 113.108C970.043 115.635 1012.73 135.747 1060.05 142.417C1136.97 153.231 1220.32 126.449 1295.58 101.89C1320.55 93.8049 1345.4 86.1239 1370.6 79.959C1422.09 67.4269 1472.14 61.464 1526 64.0917C1541.81 64.9002 1557.86 66.5173 1573.8 68.7407C1665.58 81.6771 1756.78 112.603 1798.27 150.3" stroke="#D25775" stroke-width="2" stroke-miterlimit="10"/>
<path d="M25.2969 360.517C88.0739 339.394 162.978 332.319 232.057 341.213C245.611 342.931 258.927 345.357 271.887 348.288C325.034 360.213 371.998 381.538 406.24 409.23C432.04 429.948 453.56 455.619 480.906 473.71C497.908 484.928 517.17 493.417 541.543 495.439C595.403 499.885 652.116 464.816 681.365 422.267C689.806 410.038 696.465 397.405 701.934 384.57C715.488 352.633 721.789 319.383 727.378 287.952C735.463 243.887 742.121 199.823 770.061 163.742C794.673 131.806 839.378 107.55 890.86 103.609C898.588 103.002 906.316 102.901 914.282 103.305C964.694 105.832 1007.38 128.167 1054.94 136.253C1132.46 149.593 1216.87 123.316 1292.61 97.6458C1317.58 89.2574 1342.66 81.0711 1367.87 74.1986C1419.59 60.2516 1470.24 52.1664 1524.69 53.6824C1540.75 54.1877 1556.91 55.6026 1572.97 57.725C1665.59 70.156 1756.54 105.024 1797.68 149.088" stroke="#DA5170" stroke-width="2" stroke-miterlimit="10"/>
<path d="M20.2969 351.32C83.9062 327.974 160 320.293 230.267 330.5C244.059 332.522 257.613 335.149 270.811 338.383C324.789 351.825 372.467 375.676 406.709 406.501C432.509 429.544 453.91 458.045 481.613 478.46C498.853 491.194 518.471 500.795 543.558 503.726C598.964 510.093 657.223 474.518 686.233 430.858C694.556 418.326 701.095 405.289 706.208 391.948C719.049 359.001 723.923 324.436 728.085 291.59C734.03 245.504 738.547 199.217 765.299 160.104C788.84 125.742 833.427 98.4545 885.265 93.7045C892.993 92.997 900.841 92.7949 908.807 93.1991C959.575 95.7258 1002.26 120.184 1050.17 129.684C1128.29 145.45 1213.77 119.678 1289.99 93.098C1315.07 84.4064 1340.16 75.6137 1365.37 68.1349C1417.32 52.6719 1468.57 42.5654 1523.74 42.9697C1539.91 43.0708 1556.31 44.3846 1572.48 46.4059C1665.82 58.3316 1756.65 97.1407 1797.32 147.572" stroke="#E14C6C" stroke-width="2" stroke-miterlimit="10"/>
<path d="M15.4219 342.122C79.7446 316.553 157.146 308.367 228.483 319.686C242.513 321.909 256.186 324.84 269.621 328.479C324.432 343.436 372.704 369.814 407.065 403.772C432.985 429.241 454.148 460.571 482.089 483.311C499.566 497.46 519.541 508.274 545.341 512.114C602.174 520.3 662.097 484.422 690.87 439.448C699.074 426.512 705.375 413.171 710.25 399.426C722.377 365.367 725.825 329.59 728.441 295.329C732.246 247.323 734.743 198.61 760.305 156.668C782.658 119.88 827.362 89.4593 879.439 84.1029C887.167 83.2944 895.133 83.0922 903.218 83.4964C954.343 86.0231 997.027 112.603 1045.3 123.619C1124.01 141.811 1210.68 116.545 1287.37 88.954C1312.58 79.9592 1337.66 70.6612 1362.99 62.4749C1415.07 45.597 1467.02 33.267 1522.79 32.7617C1539.19 32.5596 1555.72 33.5702 1572.13 35.5915C1666.29 47.0119 1756.89 89.6614 1797.2 146.561" stroke="#E94668" stroke-width="2" stroke-miterlimit="10"/>
<path d="M10.4297 332.825C75.5847 305.133 154.175 296.34 226.583 308.872C240.85 311.298 254.761 314.633 268.315 318.575C323.839 335.048 372.943 363.953 407.304 401.044C433.224 428.938 454.149 463.098 482.447 488.162C500.043 503.726 520.493 515.854 547.007 520.503C605.385 530.711 666.854 494.226 695.389 448.14C703.593 434.901 709.657 421.055 714.175 406.906C725.589 371.836 727.61 334.644 728.799 299.069C730.464 249.042 730.82 198.105 755.194 153.131C776.476 113.917 821.062 80.4648 873.496 74.4009C881.343 73.4913 889.309 73.1881 897.394 73.5924C948.876 76.2201 991.559 104.822 1040.07 117.354C1119.37 137.87 1207.12 113.311 1284.28 84.7096C1309.49 75.4116 1334.69 65.6082 1360.14 56.7145C1412.45 38.4217 1465 23.9694 1521.36 22.3523C1538.01 21.847 1554.65 22.6555 1571.18 24.5758C1666.17 35.4908 1756.65 82.0819 1796.48 145.349" stroke="#F04164" stroke-width="2" stroke-miterlimit="10"/>
<path d="M5.4375 323.627C71.3059 293.712 151.204 284.414 224.801 298.057C239.187 300.786 253.455 304.323 267.128 308.669C323.484 326.558 373.183 358.09 407.663 398.314C433.582 428.533 454.389 465.624 483.043 493.012C500.877 510.092 521.803 523.433 548.911 528.89C608.716 541.018 671.849 504.028 700.028 456.73C708.113 443.187 714.057 428.937 718.338 414.384C728.919 378.202 729.633 339.797 729.395 302.807C729.038 250.86 727.255 197.498 750.321 149.694C770.533 108.055 815.119 71.5702 867.79 64.7988C875.637 63.7882 883.722 63.485 891.926 63.8893C943.883 66.517 986.448 97.2408 1035.31 111.188C1115.21 134.13 1204.15 110.076 1281.67 80.565C1306.99 70.9638 1332.2 60.6552 1357.76 51.054C1410.31 31.3462 1463.46 14.7715 1520.53 12.0428C1537.29 11.2343 1554.18 11.8407 1570.82 13.6598C1666.53 23.9685 1756.89 74.5011 1796.25 144.236" stroke="#F83B60" stroke-width="2" stroke-miterlimit="10"/>
<path d="M0.445312 314.431C67.146 282.292 148.233 272.387 222.9 287.244C297.566 302.101 364.98 341.617 407.902 395.586C449.991 448.544 478.05 520.604 550.577 537.279C611.927 551.328 676.726 513.832 704.547 465.321C732.369 416.81 732.131 360.415 729.634 306.446C727.138 252.478 723.333 196.791 745.21 146.157C767.087 95.5232 822.73 50.8524 886.101 53.9854C938.416 56.6131 980.98 89.4593 1030.2 104.922C1110.7 130.189 1200.7 106.741 1278.7 76.2198C1356.69 45.6981 1433.62 7.29327 1519.1 1.63361C1633.48 -5.84521 1749.76 53.5811 1795.54 142.923" stroke="#FF365C" stroke-width="2" stroke-miterlimit="10"/>
<path d="M0.445312 308.973C66.5515 276.531 146.925 266.02 221.354 279.765C249.889 285.122 277.473 293.914 303.154 305.84C344.292 324.941 380.318 351.926 407.307 384.368C440.717 424.39 465.804 475.832 508.369 505.444C520.734 514.034 534.526 520.705 550.458 524.747C610.501 540.109 673.396 506.252 703.239 460.672C725.83 426.007 733.677 385.277 735.698 344.245C736.411 330.904 736.53 317.463 736.53 304.223C736.53 250.254 735.341 194.466 758.883 143.832C781.949 94.1084 836.997 50.2461 899.893 52.6716C951.851 54.5919 994.772 85.821 1043.76 101.082C1123.89 126.146 1212 106.236 1288.09 79.7571C1296.65 76.8262 1305.09 73.6932 1313.53 70.6612C1380.95 46.1024 1448.12 19.219 1522.43 16.5913C1541.22 15.8839 1560.24 17.0967 1578.91 19.7244C1671.17 33.166 1758.44 85.5179 1798.15 154.646" stroke="#FF3B5C" stroke-width="2" stroke-miterlimit="10"/>
<path d="M0.445312 303.415C65.957 270.67 145.617 259.451 219.808 272.186C248.225 277.138 275.808 285.526 301.49 296.947C342.628 315.341 379.01 341.415 406.594 373.049C440.717 412.06 466.636 462.391 508.844 492.306C520.972 500.896 534.526 507.769 550.101 512.216C608.955 528.891 670.067 498.673 701.575 455.922C725.83 423.278 736.293 382.852 740.335 341.82C741.643 328.479 742.475 315.037 743.07 301.798C745.685 247.728 747.112 191.94 772.199 141.407C796.335 92.6938 850.908 49.64 913.21 51.156C964.81 52.3688 1007.97 81.8799 1056.84 97.0397C1136.5 121.801 1222.81 105.529 1297.12 83.0927C1305.45 80.566 1313.77 78.0394 1321.97 75.4117C1387.6 54.5922 1452.88 31.6504 1525.52 31.3472C1543.95 31.2462 1562.5 32.8632 1580.81 35.9962C1671.53 51.2571 1759.15 102.396 1800.53 166.269" stroke="#FF415D" stroke-width="2" stroke-miterlimit="10"/>
<path d="M0.5625 297.957C65.3608 265.01 144.427 253.084 218.38 264.706C246.796 269.153 274.261 277.137 299.943 288.154C341.199 305.739 377.819 331.005 405.998 361.83C440.834 399.831 467.705 449.049 509.437 479.268C521.446 487.96 534.762 494.933 549.981 499.683C607.645 517.572 666.856 490.991 700.265 451.273C726.066 420.549 739.382 380.426 745.327 339.596C747.348 326.255 748.775 312.813 749.964 299.574C755.076 245.403 759.238 189.615 785.87 139.082C811.076 91.3795 865.174 49.0332 927 49.8417C978.363 50.347 1021.76 78.241 1070.39 93.2997C1149.57 117.859 1234.11 105.124 1306.52 86.8315C1314.6 84.8102 1322.69 82.6879 1330.77 80.4644C1394.74 63.2833 1457.99 44.3842 1528.85 46.5065C1546.8 47.0119 1565 49.1342 1582.95 52.5704C1672 69.6505 1760.1 119.577 1803.14 178.195" stroke="#FF465D" stroke-width="2" stroke-miterlimit="10"/>
<path d="M0.5625 292.499C64.7663 259.249 143.119 246.615 216.834 257.328C245.132 261.371 272.596 268.951 298.397 279.361C339.773 296.137 376.63 320.595 405.403 350.612C440.953 387.601 468.775 435.709 510.032 466.23C521.802 474.922 534.881 482.098 549.743 487.151C606.1 506.353 663.764 483.31 698.72 446.523C726.304 417.618 742.236 378 750.083 337.17C752.698 323.829 754.72 310.489 756.622 297.148C764.35 242.977 771.008 187.088 799.306 136.657C825.582 89.9644 879.204 48.4266 940.435 48.3255C991.442 48.2244 1035.08 74.4003 1083.59 89.2569C1162.41 113.513 1245.05 104.417 1315.67 90.1665C1323.52 88.5495 1331.37 86.9324 1339.21 85.2143C1401.39 71.7726 1462.75 56.815 1531.94 61.2618C1549.54 62.3735 1567.25 65.0012 1584.97 68.8417C1672.36 87.7409 1760.94 136.454 1805.52 189.817" stroke="#FF4C5E" stroke-width="2" stroke-miterlimit="10"/>
<path d="M0.5625 287.042C64.1718 253.488 141.811 240.248 215.289 249.85C243.467 253.488 270.932 260.563 296.732 270.568C338.227 286.637 375.442 310.186 404.69 339.393C441.072 375.474 469.726 422.368 510.507 453.193C522.159 461.986 535 469.363 549.386 474.72C604.554 495.135 660.554 475.73 697.174 441.975C726.422 414.99 744.97 375.676 754.957 334.947C758.168 321.606 760.902 308.265 763.518 294.925C773.743 240.653 783.017 184.764 813.098 134.332C840.325 88.5495 893.59 47.8203 954.346 47.0117C1005.11 46.2032 1048.99 70.661 1097.26 85.5176C1175.61 109.571 1256.46 103.911 1325.18 93.8049C1332.91 92.6932 1340.52 91.4804 1348.13 90.2676C1408.65 80.4643 1467.98 69.5493 1535.51 76.3207C1552.63 78.0388 1569.99 81.0707 1587.35 85.3154C1673.07 106.034 1762.13 153.535 1808.38 201.642" stroke="#FF515E" stroke-width="2" stroke-miterlimit="10"/>
<path d="M0.5625 281.585C63.5774 247.728 140.622 233.781 213.624 242.371C241.684 245.605 269.149 252.175 295.068 261.776C336.563 277.037 374.134 299.877 403.977 328.176C441.072 363.245 470.677 409.028 510.983 440.156C522.516 448.949 535 456.528 549.149 462.188C603.127 483.917 657.463 468.05 695.747 437.225C726.898 412.06 747.943 373.251 759.832 332.521C763.756 319.282 767.085 305.84 770.295 292.5C783.136 238.228 794.907 182.237 826.652 131.907C854.949 87.135 907.739 47.2142 967.9 45.5972C1018.31 44.0812 1062.42 66.922 1110.58 81.5764C1188.45 105.327 1267.52 103.305 1334.46 97.2415C1341.95 96.5341 1349.32 95.8266 1356.81 95.0181C1415.54 88.9542 1472.97 81.9807 1538.72 91.0765C1555.37 93.401 1572.37 96.9383 1589.37 101.486C1673.43 124.024 1762.96 170.211 1810.75 213.163" stroke="#FF575F" stroke-width="2" stroke-miterlimit="10"/>
<path d="M0.679688 276.025C62.9812 241.865 139.431 227.312 212.196 234.791C240.136 237.62 267.601 243.785 293.52 252.78C335.134 267.232 372.943 289.265 403.499 316.754C441.308 350.813 471.746 395.484 511.695 426.916C522.99 435.809 535.355 443.49 549.028 449.453C601.699 472.496 654.726 460.267 694.319 432.373C727.372 409.128 750.913 370.723 764.705 330.095C769.223 316.856 773.266 303.414 777.07 290.073C792.527 235.7 806.675 179.71 840.204 129.379C869.453 85.5172 921.886 46.506 981.571 43.9794C1031.63 41.857 1075.97 62.9796 1124.01 77.4319C1201.53 100.879 1278.69 102.496 1343.73 100.475C1350.98 100.273 1358.23 99.9695 1365.37 99.6663C1422.32 97.2407 1477.84 94.2088 1541.93 105.73C1558.22 108.661 1574.74 112.704 1591.39 117.656C1673.9 142.013 1763.79 186.987 1813.25 224.684" stroke="#FF5C5F" stroke-width="2" stroke-miterlimit="10"/>
<path d="M0.679688 270.568C62.3867 236.206 138.123 220.844 210.65 227.312C238.591 229.738 265.937 235.398 291.856 243.988C333.588 257.733 371.635 278.856 402.786 305.537C441.308 338.585 472.697 382.144 512.17 413.879C523.346 422.773 535.355 430.656 548.79 437.023C600.272 461.38 651.873 452.789 692.892 427.725C727.847 406.4 753.767 368.298 769.58 327.771C774.811 314.532 779.448 301.09 783.848 287.749C801.801 233.376 818.446 177.285 853.758 127.056C883.839 84.2041 936.034 46.0014 995.244 42.6662C1045.06 39.8364 1089.65 59.2409 1137.44 73.6932C1214.49 96.9382 1289.87 102.093 1353.12 104.215C1360.14 104.417 1367.15 104.619 1374.17 104.821C1429.45 106.135 1482.96 107.045 1545.26 120.992C1561.07 124.529 1577.24 129.077 1593.65 134.332C1674.5 160.508 1764.86 204.27 1815.86 236.712" stroke="#FF6160" stroke-width="2" stroke-miterlimit="10"/>
<path d="M0.679688 265.11C61.7922 230.445 136.816 214.477 209.104 219.833C236.926 221.854 264.272 227.11 290.31 235.195C332.043 248.131 370.446 268.445 402.191 294.318C441.427 326.356 473.648 368.803 512.765 400.841C523.703 409.836 535.593 417.82 548.552 424.49C598.845 450.161 649.138 445.209 691.346 423.075C728.323 403.671 756.62 365.973 774.336 325.446C780.162 312.207 785.393 298.866 790.506 285.424C811.075 230.95 830.098 174.758 867.194 124.63C898.225 82.6875 950.064 45.3945 1008.68 41.1497C1058.14 37.6124 1102.96 55.3999 1150.64 69.6501C1227.21 92.5919 1300.81 101.385 1362.28 107.55C1369.17 108.257 1375.95 108.863 1382.73 109.47C1436.23 114.422 1487.83 119.374 1548.47 135.646C1563.81 139.789 1579.62 144.742 1595.67 150.401C1674.85 178.396 1765.57 220.945 1818.36 248.131" stroke="#FF6760" stroke-width="2" stroke-miterlimit="10"/>
<path d="M0.679688 259.653C61.1977 224.684 135.508 208.009 207.559 212.355C235.261 213.972 262.489 218.722 288.646 226.302C330.497 238.429 369.138 257.935 401.478 283.1C441.546 314.127 474.599 355.463 513.24 387.804C524.06 396.799 535.593 405.086 548.315 411.958C597.3 438.842 646.404 437.73 689.92 418.326C728.918 400.942 759.593 363.447 779.211 323.122C785.631 309.883 791.576 296.542 797.283 283.1C820.349 228.626 841.869 172.333 880.748 122.305C912.612 81.273 964.213 44.7884 1022.35 39.8362C1071.46 35.6925 1116.64 51.7619 1164.08 65.81C1240.29 88.5496 1311.86 100.779 1371.55 111.087C1378.21 112.199 1384.75 113.311 1391.29 114.422C1443.13 123.114 1492.71 132.008 1551.68 150.604C1566.66 155.354 1582 160.811 1597.69 166.875C1675.21 196.689 1766.4 237.924 1820.74 259.956" stroke="#FF6C61" stroke-width="2" stroke-miterlimit="10"/>
<path d="M0.804688 254.195C60.6094 218.923 134.325 201.641 206.138 204.875C233.722 206.088 260.949 210.333 287.106 217.508C329.076 228.929 368.074 247.626 400.89 271.882C441.671 301.898 475.675 342.122 513.841 374.665C524.423 383.761 535.837 392.149 548.083 399.426C595.879 427.623 643.794 430.251 688.38 413.676C729.518 398.415 762.333 361.122 783.972 320.797C791.106 307.659 797.645 294.217 803.947 280.775C829.628 226.2 853.527 169.806 894.308 119.879C927.004 79.7565 978.367 44.1816 1035.91 38.4208C1084.78 33.5697 1130.08 47.921 1177.4 61.969C1253.14 84.4055 1322.93 100.273 1380.83 114.624C1387.25 116.241 1393.67 117.757 1399.97 119.374C1450.03 131.704 1497.71 144.64 1554.89 165.561C1569.4 170.917 1584.38 176.88 1599.84 183.247C1675.81 214.881 1767.36 254.903 1823.36 271.578" stroke="#FF7261" stroke-width="2" stroke-miterlimit="10"/>
<path d="M0.804688 248.738C60.0149 213.264 133.017 195.174 204.592 197.397C232.057 198.206 259.285 202.046 285.561 208.615C327.65 219.227 366.885 237.116 400.295 260.563C441.79 289.569 476.745 328.681 514.435 361.527C524.898 370.623 535.955 379.213 547.845 386.793C594.452 416.405 641.178 422.874 686.953 408.826C730.231 395.687 765.306 358.495 788.966 318.271C796.694 305.133 803.947 291.691 810.843 278.249C839.021 223.674 865.297 167.179 907.981 117.353C941.51 78.14 992.635 43.3736 1049.7 36.8043C1098.21 31.2458 1143.75 43.98 1190.95 57.826C1266.21 80.0603 1334.22 99.4648 1390.22 117.859C1396.52 119.88 1402.59 121.901 1408.77 123.923C1457.04 139.992 1502.82 156.87 1558.34 180.216C1572.49 186.179 1587 192.647 1602.1 199.418C1676.41 232.871 1768.43 271.68 1826.1 283.1" stroke="#FF7762" stroke-width="2" stroke-miterlimit="10"/>
<path d="M0.804688 243.18C59.4204 207.403 131.709 188.706 203.047 189.818C230.393 190.222 257.62 193.557 283.896 199.722C325.985 209.525 365.577 226.605 399.582 249.244C441.79 277.34 477.696 315.239 514.911 348.389C525.255 357.586 536.074 366.277 547.607 374.161C592.907 405.086 638.563 415.395 685.408 404.076C730.826 393.06 768.159 356.07 793.722 315.947C802.163 302.808 810.011 289.367 817.501 275.925C848.295 221.249 876.83 164.652 921.416 114.928C955.777 76.6245 1006.66 42.7676 1063.14 35.3898C1111.41 29.1238 1157.19 40.2409 1204.03 53.9858C1278.94 75.917 1345.04 98.9599 1399.26 121.497C1405.32 124.024 1411.27 126.45 1417.09 128.976C1463.7 148.684 1507.34 169.604 1561.2 195.275C1574.87 201.844 1589.02 208.717 1603.76 215.892C1676.41 251.164 1768.91 288.76 1828.12 294.925" stroke="#FF7D62" stroke-width="2" stroke-miterlimit="10"/>
<path d="M0.921875 237.722C58.9431 201.642 130.518 182.237 201.618 182.338C228.964 182.338 256.073 185.269 282.349 190.929C324.557 200.025 364.387 216.195 398.986 238.025C442.026 265.111 478.765 301.899 515.504 335.351C525.61 344.548 536.192 353.543 547.368 361.729C591.478 393.969 635.945 408.32 683.979 399.427C731.419 390.735 771.011 353.644 798.595 313.622C807.631 300.484 816.073 287.143 824.395 273.6C857.686 218.924 888.599 162.024 935.087 112.603C970.281 75.2093 1020.93 42.161 1076.93 33.9747C1124.85 27.0012 1170.86 36.5014 1217.58 50.0441C1292.01 71.6721 1356.34 98.2522 1408.65 124.933C1414.48 127.864 1420.18 130.896 1425.89 133.827C1470.71 157.274 1512.45 182.136 1564.64 210.131C1577.84 217.307 1591.63 224.685 1606.02 232.164C1677 269.255 1769.97 305.537 1830.85 306.548" stroke="#FF8263" stroke-width="2" stroke-miterlimit="10"/>
<path d="M0.921875 232.265C58.2297 195.881 129.211 175.87 200.073 174.86C227.3 174.455 254.408 176.881 280.803 182.035C323.13 190.323 363.198 205.685 398.391 226.706C442.145 252.781 479.835 288.457 516.098 322.213C526.085 331.511 536.429 340.607 547.249 349.096C590.051 382.65 633.33 401.044 682.671 394.677C732.251 388.309 774.102 351.218 803.589 311.197C813.219 298.058 822.374 284.718 831.291 271.175C867.198 216.397 900.37 159.397 948.761 110.077C984.667 73.4912 1035.2 41.3524 1090.72 32.4587C1138.28 24.7777 1184.65 32.5598 1231.14 46.0014C1305.21 67.4273 1367.63 97.5447 1418.16 128.269C1423.75 131.705 1429.34 135.141 1434.69 138.476C1477.85 165.663 1517.56 194.466 1568.09 224.786C1580.93 232.568 1594.25 240.451 1608.4 248.334C1677.83 287.244 1771.16 322.314 1833.58 318.069" stroke="#FF8763" stroke-width="2" stroke-miterlimit="10"/>
<path d="M0.921875 226.807C57.6353 190.12 127.903 169.402 198.527 167.38C225.635 166.572 252.744 168.593 279.138 173.242C321.584 180.721 362.009 195.274 397.678 215.487C442.145 240.552 480.786 275.116 516.574 309.175C526.442 318.473 536.429 327.771 546.892 336.564C588.387 371.431 630.476 393.969 681.007 389.926C732.608 385.883 776.837 348.793 808.226 308.771C818.57 295.733 828.319 282.292 837.831 268.749C876.234 213.87 911.665 156.667 962.077 107.651C998.697 71.9748 1049.11 40.6446 1104.04 31.0434C1151.24 22.655 1197.85 28.82 1244.22 42.1606C1317.81 63.2832 1378.45 97.039 1427.08 131.805C1432.55 135.646 1437.78 139.587 1443.01 143.428C1484.39 174.253 1522.2 206.998 1570.94 239.844C1583.31 248.132 1596.27 256.52 1610.06 264.807C1677.83 305.436 1771.64 339.393 1835.72 329.893" stroke="#FF8D64" stroke-width="2" stroke-miterlimit="10"/>
<path d="M0.921875 221.349C57.0408 184.46 126.595 163.035 196.981 159.902C223.971 158.689 251.079 160.205 277.593 164.45C320.039 171.221 360.82 184.966 397.083 204.269C442.264 228.323 481.856 261.775 517.168 296.138C526.799 305.537 536.548 315.037 546.773 324.133C587.079 360.314 627.86 386.894 679.699 385.378C733.44 383.761 779.809 346.468 813.219 306.648C824.158 293.611 834.62 280.169 844.727 266.626C885.746 211.748 923.436 154.343 975.75 105.427C1013.2 70.5599 1063.38 40.1393 1117.83 29.7295C1164.79 20.6337 1211.52 25.1816 1257.77 38.3201C1330.89 59.2406 1389.75 96.5336 1436.59 135.343C1441.82 139.689 1446.93 144.034 1451.93 148.38C1491.52 182.944 1527.43 219.631 1574.51 254.802C1586.52 263.696 1599.12 272.589 1612.44 281.281C1678.54 323.728 1772.83 356.474 1838.46 341.718" stroke="#FF9264" stroke-width="2" stroke-miterlimit="10"/>
<path d="M1.03906 215.892C56.5635 178.7 125.404 156.567 195.434 152.423C222.305 150.806 249.413 151.817 275.927 155.556C318.491 161.519 359.51 174.455 396.368 192.95C442.262 215.993 482.687 248.233 517.642 282.999C527.154 292.398 536.665 302.101 546.415 311.5C585.413 349.096 625.124 377.697 678.033 380.628C733.557 383.66 782.542 344.043 817.854 304.223C829.506 291.186 840.445 277.744 851.264 264.201C894.78 209.222 934.729 151.513 989.183 103.002C1027.35 68.9432 1077.4 39.5332 1131.26 28.315C1177.87 18.5117 1224.95 21.3415 1270.97 34.4799C1343.73 55.0972 1400.68 96.0287 1445.63 138.88C1450.62 143.63 1455.49 148.482 1460.25 153.232C1498.18 191.434 1532.06 232.164 1577.36 269.659C1588.89 279.159 1601.14 288.558 1614.22 297.553C1678.66 341.819 1773.42 373.352 1840.72 353.341" stroke="#FF9865" stroke-width="2" stroke-miterlimit="10"/>
<path d="M1.03906 210.333C55.8501 172.838 124.096 150.098 193.888 144.843C220.64 142.821 247.748 143.428 274.262 146.662C316.946 151.917 358.203 163.944 395.655 181.631C442.381 203.663 483.638 234.791 518.118 269.86C527.392 279.361 536.665 289.164 546.058 298.866C583.748 337.776 622.033 372.644 676.487 375.777C734.152 379.112 785.396 341.415 822.729 301.696C834.975 288.659 846.627 275.217 858.041 261.674C904.173 206.695 946.262 148.683 1002.74 100.475C1041.62 67.2246 1091.55 38.8253 1144.94 26.6975C1191.31 16.1867 1238.51 17.3995 1284.4 30.3358C1356.69 50.751 1411.86 95.1187 1455.02 142.215C1459.77 147.47 1464.53 152.726 1469.05 157.981C1505.19 199.923 1537.17 244.594 1580.81 284.414C1591.87 294.52 1603.76 304.425 1616.48 313.723C1679.26 359.808 1774.37 390.027 1843.33 364.862" stroke="#FF9D65" stroke-width="2" stroke-miterlimit="10"/>
<path d="M1.03906 204.876C55.2556 167.078 122.789 143.631 192.343 137.365C219.094 134.939 246.084 135.04 272.716 137.769C315.4 142.216 357.014 153.434 395.06 170.312C442.5 191.333 484.708 221.35 518.712 256.723C527.867 266.223 536.784 276.329 545.939 286.335C582.321 326.66 619.298 365.57 675.06 371.129C734.627 376.99 788.249 339.091 827.604 299.473C840.445 286.436 852.81 273.095 864.818 259.451C913.447 204.371 957.795 146.056 1016.29 98.1513C1055.88 65.7094 1105.7 38.2196 1158.49 25.3843C1204.5 14.1661 1252.06 13.7618 1297.72 26.4961C1369.53 46.608 1422.92 94.6141 1464.17 145.753C1468.81 151.413 1473.21 157.173 1477.61 162.934C1512.09 208.515 1542.05 257.228 1584.02 299.372C1594.72 310.085 1606.13 320.394 1618.5 330.197C1679.73 378.102 1775.2 407.108 1845.83 376.687" stroke="#FFA366" stroke-width="2" stroke-miterlimit="10"/>
<path d="M1.15625 199.418C75.3473 146.763 174.982 120.688 271.169 128.976C367.356 137.162 458.906 179.508 519.305 243.685C564.485 291.792 602.175 356.676 673.632 366.378C734.982 374.766 791.22 336.564 832.477 297.047C900.723 231.557 954.345 155.051 1029.84 95.7253C1105.46 36.4 1213.42 -4.63256 1311.15 22.554C1390.57 44.5862 1445.27 105.933 1486.29 167.785C1527.3 229.637 1561.07 296.744 1620.64 346.569C1680.21 396.394 1776.15 424.086 1848.44 388.41" stroke="#FFA866" stroke-width="2" stroke-miterlimit="10"/>
</svg>
