<svg width="77" height="82" viewBox="0 0 77 82" fill="none" xmlns="http://www.w3.org/2000/svg">
<path d="M86.2076 31.6329L64.8777 37.8363L86.2076 44.0371L63.9948 43.9743L82.7153 55.942L61.422 49.6183L76.0154 66.3777L57.3629 54.3055L66.6487 74.4999L52.1493 57.6595L55.3725 79.6524L46.2017 59.4057L43.1038 81.4196L40.0059 59.4057L30.8351 79.6524L34.0583 57.6595L19.5615 74.4999L28.8447 54.3055L10.1922 66.3777L24.7856 49.6183L3.49229 55.942L22.2127 43.9743L0 44.0371L21.3299 37.8363L0 31.6329L22.2127 31.6956L3.49229 19.7306L24.7856 26.0542L10.1922 9.29483L28.8447 21.367L19.5615 1.17262L34.0583 18.0131L30.8351 -3.98251L40.0059 16.2668L43.1038 -5.74707L46.2017 16.2668L55.3725 -3.98251L52.1493 18.0131L66.6487 1.17262L57.3629 21.367L76.0154 9.29483L61.422 26.0542L82.7153 19.7306L63.9948 31.6956L86.2076 31.6329Z" fill="#FF9FC2"/>
</svg>
